Le celebri avventure del commissario Maigret con Gino Cervi.


Format                                   : MPEG-4
Format profile                           : Base Media
Codec ID                                 : isom
File size                                : 1.30 GiB
Duration                                 : 3h 34mn
Overall bit rate                         : 866 Kbps
Encoded date                             : UTC 2013-03-05 06:16:48
Tagged date                              : UTC 2013-03-05 06:16:48

Video
ID                                       : 1
Format                                   : AVC
Format/Info                              : Advanced Video Codec
Format profile                           : High@L3.0
Format settings, CABAC                   : Yes
Format settings, ReFrames                : 5 frames
Codec ID                                 : avc1
Codec ID/Info                            : Advanced Video Coding
Duration                                 : 3h 34mn
Bit rate                                 : 479 Kbps
Maximum bit rate                         : 2 556 Kbps
Width                                    : 720 pixels
Height                                   : 576 pixels
Display aspect ratio                     : 4:3
Original display aspect ratio            : 4:3
Frame rate mode                          : Constant
Frame rate                               : 25.000 fps
Standard                                 : PAL
Color space                              : YUV
Chroma subsampling                       : 4:2:0
Bit depth                                : 8 bits
Scan type                                : Progressive
Bits/(Pixel*Frame)                       : 0.046
Stream size                              : 734 MiB (55%)
Title                                    : 264#trackID=1:fps=25@GPAC0.5.1-DEV-rev4283
Writing library                          : x264 core 129 r2245 bc13772


Audio
ID                                       : 2
Format                                   : AC-3
Format/Info                              : Audio Coding 3
Mode extension                           : CM (complete main)
Format settings, Endianness              : Big
Codec ID                                 : ac-3
Duration                                 : 3h 34mn
Bit rate mode                            : Constant
Bit rate                                 : 384 Kbps
Channel(s)                               : 1 channel
Channel positions                        : Front: C
Sampling rate                            : 48.0 KHz
Bit depth                                : 16 bits
Compression mode                         : Lossy
Stream size                              : 589 MiB (44%)
Title                                    : ac3#trackID=1:lang=it@GPAC0.5.1-DEV-rev4283
Language                                 : Italian
Encoded date                             : UTC 2013-03-05 06:18:00
Tagged date                              : UTC 2013-03-05 06:18:33
